<?xml version="1.0" encoding="utf-8"?>
<svg version="1.1" xmlns="http://www.w3.org/2000/svg" xmlns:xlink="http://www.w3.org/1999/xlink" height="31.00001999999995" width="28.000020000000404">
  <defs>
    <path id="path-1" opacity="1" fill-rule="evenodd" d="M2,-5.684341886080802e-14 L8.500007500000152,-5.684341886080802e-14 C9.603837548988151,-5.684341886080802e-14 10.500007500000152,0.8961699510119432 10.500007500000152,1.9999999999999432 L10.500007500000152,29.000019999999893 C10.500007500000152,30.103850048987894 9.603837548988151,31.000019999999893 8.500007500000152,31.000019999999893 L2,31.000019999999893 C0.8961699510120003,31.000019999999893 2.220446049250313e-16,30.103850048987894 0,29.000019999999893 L0,1.9999999999999432 C0,0.8961699510119434 0.8961699510119996,-5.6621374255882984e-14 2,-5.684341886080802e-14Z"/>
    <path id="path-2" opacity="1" fill-rule="evenodd" d="M19.500012500000253,-5.684341886080802e-14 L26.000020000000404,-5.684341886080802e-14 C27.103850048988406,-5.684341886080802e-14 28.000020000000404,0.8961699510119432 28.000020000000404,1.9999999999999432 L28.000020000000404,29.000019999999893 C28.000020000000404,30.103850048987894 27.103850048988406,31.000019999999893 26.000020000000404,31.000019999999893 L19.500012500000253,31.000019999999893 C18.39618245101225,31.000019999999893 17.500012500000253,30.103850048987894 17.500012500000253,29.000019999999893 L17.500012500000253,1.9999999999999432 C17.500012500000253,0.8961699510119434 18.39618245101225,-5.6621374255882984e-14 19.500012500000253,-5.684341886080802e-14Z"/>
  </defs>
  <g opacity="1">
    <g opacity="1">
      <use xlink:href="#path-1" fill="rgb(255,255,255)" fill-opacity="1"/>
    </g>
    <g opacity="1">
      <use xlink:href="#path-2" fill="rgb(255,255,255)" fill-opacity="1"/>
    </g>
  </g>
</svg>